<svg xmlns="http://www.w3.org/2000/svg">
  <symbol id="folder" viewBox="0 0 24 24">
    <path d="M20,6h-8l-1.414-1.414C10.211,4.211,9.702,4,9.172,4H4C2.9,4,2,4.9,2,6v12c0,1.1,0.9,2,2,2h16c1.1,0,2-0.9,2-2V8 C22,6.9,21.1,6,20,6z" />
  </symbol>

  <symbol id="file" viewBox="0 0 24 24">
    <path d="M13.172,2H6C4.9,2,4,2.9,4,4v16c0,1.1,0.9,2,2,2h12c1.1,0,2-0.9,2-2V8.828c0-0.53-0.211-1.039-0.586-1.414l-4.828-4.828 C14.211,2.211,13.702,2,13.172,2z M18.5,9H13V3.5L18.5,9z" />
  </symbol>
</svg>